<svg width="150" height="107" viewBox="0 0 150 107" fill="none" xmlns="http://www.w3.org/2000/svg">
<path d="M148.835 45.3272L127.177 23.6696C125.625 22.1177 123.106 22.1177 121.55 23.6696C119.998 25.2216 119.998 27.7407 121.55 29.2965L140.396 48.1426L91.4545 97.0806L75.4239 81.05L113.112 43.3579L117.893 48.1387L88.643 77.3923C87.091 78.9443 87.091 81.4633 88.643 83.0192C90.195 84.5712 92.714 84.5712 94.2699 83.0192L126.335 50.9541C127.891 49.4021 127.891 46.883 126.335 45.3272L115.927 34.9195C115.183 34.1748 114.169 33.7536 113.116 33.7536C112.059 33.7536 111.049 34.1708 110.304 34.9195L48.1395 97.0806L42.5126 91.4537L115.927 18.0427C117.479 16.4908 117.479 13.9717 115.927 12.4158L104.674 1.16593C103.929 0.417241 102.915 0 101.862 0C100.805 0 99.7954 0.417241 99.0506 1.16593L80.2046 20.012L61.3586 1.16593C59.8066 -0.386045 57.2875 -0.386045 55.7317 1.16593L1.16672 55.7309C-0.385256 57.2829 -0.385256 59.8019 1.16672 61.3578L22.8242 83.0153C23.6002 83.7913 24.618 84.1813 25.6357 84.1813C26.6535 84.1813 27.6713 83.7913 28.4472 83.0153C29.9992 81.4633 29.9992 78.9443 28.4472 77.3884L9.60123 58.5424L58.5471 9.60434L74.5777 25.635L36.8895 63.327L32.1088 58.5463L61.3586 29.2965C62.9106 27.7446 62.9106 25.2255 61.3586 23.6696C59.8066 22.1177 57.2875 22.1177 55.7317 23.6696L23.6704 55.7309C22.1184 57.2829 22.1184 59.8019 23.6704 61.3578L34.078 71.7654C34.8228 72.5102 35.8367 72.9313 36.8895 72.9313C37.9463 72.9313 38.9563 72.5141 39.701 71.7654L101.862 9.60434L107.489 15.2312L34.0742 88.6422C32.5222 90.1942 32.5222 92.7132 34.0742 94.2691L45.3241 105.523C46.0688 106.268 47.0827 106.689 48.1356 106.689C49.1923 106.689 50.2023 106.268 50.947 105.523L69.7931 86.6769L88.6391 105.523C89.3839 106.268 90.3978 106.689 91.4506 106.689C92.5073 106.689 93.5173 106.268 94.2621 105.523L148.831 50.9541C150.387 49.3982 150.387 46.8791 148.835 45.3272Z" fill="url(#paint0_linear)"/>
<defs>
<linearGradient id="paint0_linear" x1="83.4564" y1="-28.4507" x2="55.846" y2="258.872" gradientUnits="userSpaceOnUse">
<stop stop-color="#3AD1BF"/>
<stop offset="1" stop-color="#119BD2"/>
</linearGradient>
</defs>
</svg>
