<svg width="23" height="28" viewBox="0 0 23 28" fill="none" xmlns="http://www.w3.org/2000/svg">
<path d="M22.46 19.49C22.26 19.06 21.95 18.68 21.59 18.39L21.05 17.96C19.9 17.03 19.24 15.66 19.24 14.18V13.95V13.22V11.24C19.2 7.66 16.79 4.54 13.39 3.57C13.5 3.36 13.58 3.14 13.62 2.91C13.75 2.27 13.62 1.62 13.26 1.07C12.9 0.53 12.35 0.16 11.7 0.03C11.6 0 11.49 0.01 11.39 0C11.29 0.01 11.18 0 11.08 0.02C10.44 0.15 9.89 0.52 9.52 1.06C9.16 1.61 9.03 2.26 9.16 2.9C9.2 3.13 9.28 3.35 9.39 3.56C5.96 4.54 3.54 7.7 3.54 11.31C3.54 11.55 3.74 11.75 3.98 11.75C4.22 11.75 4.42 11.55 4.42 11.31C4.42 7.89 6.86 4.92 10.22 4.26C10.61 4.18 11 4.15 11.4 4.13C11.8 4.14 12.19 4.18 12.58 4.26C15.93 4.92 18.37 7.88 18.38 11.3V13.94V14.17C18.38 15.91 19.16 17.54 20.52 18.63L21.06 19.06C21.33 19.28 21.55 19.55 21.7 19.86C21.85 20.17 21.93 20.51 21.93 20.86C21.93 22.12 20.91 23.14 19.65 23.14H11.42H3.16C1.9 23.14 0.88 22.12 0.88 20.86C0.88 20.52 0.96 20.17 1.11 19.86C1.26 19.55 1.48 19.27 1.75 19.06L2.29 18.63C3.65 17.54 4.43 15.91 4.43 14.17V13.21C4.43 12.97 4.23 12.77 3.99 12.77C3.75 12.77 3.55 12.97 3.55 13.21V14.17C3.55 15.65 2.89 17.02 1.74 17.95L1.2 18.38C0.83 18.68 0.53 19.06 0.33 19.48C0.11 19.91 0 20.39 0 20.86C0 22.6 1.42 24.01 3.16 24.01H7.73C7.73 24.05 7.73 24.1 7.73 24.14C7.73 26.19 9.36 27.85 11.39 27.95C13.42 27.86 15.05 26.19 15.05 24.14C15.05 24.1 15.05 24.05 15.05 24.01H19.62C21.36 24.01 22.78 22.6 22.78 20.86C22.78 20.39 22.67 19.91 22.46 19.49ZM12.76 2.73C12.71 2.96 12.62 3.17 12.48 3.36C12.12 3.3 11.75 3.27 11.39 3.26C11.02 3.27 10.66 3.3 10.3 3.36C10.16 3.18 10.07 2.96 10.02 2.73C9.94 2.32 10.02 1.9 10.25 1.55C10.48 1.2 10.84 0.96 11.25 0.88C11.3 0.87 11.34 0.88 11.39 0.87C11.44 0.88 11.48 0.87 11.53 0.88C11.94 0.96 12.3 1.2 12.53 1.55C12.76 1.9 12.85 2.32 12.76 2.73ZM11.39 27.08C9.84 26.99 8.6 25.72 8.6 24.15C8.6 24.11 8.6 24.06 8.6 24.02H11.38H14.16C14.16 24.06 14.16 24.11 14.16 24.15C14.17 25.71 12.94 26.99 11.39 27.08Z" fill="#B3B3B3"/>
</svg>
