<svg width="105" height="121" viewBox="0 0 105 121" fill="none" xmlns="http://www.w3.org/2000/svg">
<path d="M4.03846 60.5C4.03846 74.5884 10.1042 87.237 19.7279 96.0821L16.8687 98.9336C6.51808 89.3545 0 75.7057 0 60.5C0 31.5407 23.5038 8.06667 52.5 8.06667C61.2554 8.06667 69.4777 10.2568 76.7308 14.0521V0H80.7692V18.9849L67.3292 32.4078L64.474 29.5563L75.8665 18.1782C68.9285 14.3425 60.9929 12.1 52.5 12.1C25.7371 12.1 4.03846 33.7711 4.03846 60.5ZM88.1273 22.0664L85.2721 24.922C94.8958 33.763 100.962 46.4075 100.962 60.5C100.962 87.2289 79.2629 108.9 52.5 108.9C44.0112 108.9 36.0715 106.657 29.1335 102.822L40.526 91.4437L37.6708 88.5922L24.2308 102.015V121H28.2692V106.952C35.5223 110.747 43.7446 112.933 52.5 112.933C81.4962 112.933 105 89.4593 105 60.5C105 45.2943 98.4819 31.6455 88.1273 22.0664Z" fill="#31C5C3"/>
</svg>
